<svg width="13" height="13" viewBox="0 0 13 13" fill="none" xmlns="http://www.w3.org/2000/svg">
<path d="M5.70561 1.32941C5.8927 0.753588 6.70733 0.753587 6.89443 1.32941L7.84355 4.25051C7.92722 4.50802 8.1672 4.68237 8.43796 4.68237H11.5094C12.1148 4.68237 12.3666 5.45713 11.8768 5.81301L9.39192 7.61835C9.17286 7.7775 9.0812 8.0596 9.16488 8.31712L10.114 11.2382C10.3011 11.814 9.64204 12.2929 9.15222 11.937L6.66738 10.1317C6.44833 9.9725 6.15171 9.9725 5.93265 10.1317L3.44782 11.937C2.95799 12.2929 2.29894 11.814 2.48604 11.2382L3.43516 8.31712C3.51883 8.05961 3.42717 7.7775 3.20812 7.61835L0.723281 5.81301C0.23346 5.45713 0.485194 4.68237 1.09065 4.68237H4.16207C4.43284 4.68237 4.67281 4.50802 4.75648 4.25051L5.70561 1.32941Z" fill="#B5B5B4"/>
</svg>
