<svg width="13" height="13" viewBox="0 0 13 13" fill="none" xmlns="http://www.w3.org/2000/svg">
<path d="M6.1056 1.32941C6.2927 0.753588 7.10733 0.753587 7.29442 1.32941L8.24355 4.25051C8.32722 4.50802 8.56719 4.68237 8.83796 4.68237H11.9094C12.5148 4.68237 12.7666 5.45713 12.2767 5.81301L9.79191 7.61835C9.57286 7.7775 9.4812 8.0596 9.56487 8.31712L10.514 11.2382C10.7011 11.814 10.042 12.2929 9.55222 11.937L7.06738 10.1317C6.84832 9.9725 6.5517 9.9725 6.33265 10.1317L3.84781 11.937C3.35799 12.2929 2.69894 11.814 2.88603 11.2382L3.83516 8.31712C3.91883 8.05961 3.82717 7.7775 3.60811 7.61835L1.12328 5.81301C0.633454 5.45713 0.885188 4.68237 1.49064 4.68237H4.56207C4.83283 4.68237 5.07281 4.50802 5.15648 4.25051L6.1056 1.32941Z" fill="#EF9F27"/>
</svg>
